<mxfile host="app.diagrams.net" modified="2023-11-30T10:29:03.318Z" agent="Mozilla/5.0 (Windows NT 10.0; Win64; x64; rv:120.0) Gecko/20100101 Firefox/120.0" etag="rVThgKBlylRNoHh6HETm" version="22.1.5" type="github">
  <diagram name="Page-1" id="_Q7cDPzw-axwqQaWXP8o">
    <mxGraphModel dx="3447" dy="2364" grid="1" gridSize="10" guides="1" tooltips="1" connect="1" arrows="1" fold="1" page="1" pageScale="1" pageWidth="1169" pageHeight="827" math="0" shadow="0">
      <root>
        <mxCell id="0" />
        <mxCell id="1" parent="0" />
        <mxCell id="3B2InA5xFkFEmeWdDdn8-14" value="" style="rounded=0;whiteSpace=wrap;html=1;" vertex="1" parent="1">
          <mxGeometry x="310" y="-310" width="810" height="1300" as="geometry" />
        </mxCell>
        <mxCell id="3B2InA5xFkFEmeWdDdn8-15" value="Admin" style="shape=umlActor;verticalLabelPosition=bottom;verticalAlign=top;html=1;outlineConnect=0;" vertex="1" parent="1">
          <mxGeometry x="240" y="610" width="50" height="100" as="geometry" />
        </mxCell>
        <mxCell id="3B2InA5xFkFEmeWdDdn8-16" value="GÃ©rer le system" style="ellipse;whiteSpace=wrap;html=1;" vertex="1" parent="1">
          <mxGeometry x="410" y="630" width="90" height="60" as="geometry" />
        </mxCell>
        <mxCell id="3B2InA5xFkFEmeWdDdn8-17" value="" style="endArrow=none;html=1;rounded=0;exitX=0.5;exitY=0.5;exitDx=0;exitDy=0;exitPerimeter=0;entryX=0;entryY=0.5;entryDx=0;entryDy=0;" edge="1" parent="1" source="3B2InA5xFkFEmeWdDdn8-15" target="3B2InA5xFkFEmeWdDdn8-16">
          <mxGeometry width="50" height="50" relative="1" as="geometry">
            <mxPoint x="620" y="730" as="sourcePoint" />
            <mxPoint x="470" y="660" as="targetPoint" />
          </mxGeometry>
        </mxCell>
        <mxCell id="3B2InA5xFkFEmeWdDdn8-18" value="gestion des produits" style="ellipse;whiteSpace=wrap;html=1;" vertex="1" parent="1">
          <mxGeometry x="560" y="614" width="120" height="80" as="geometry" />
        </mxCell>
        <mxCell id="3B2InA5xFkFEmeWdDdn8-19" value="gestion des artisants" style="ellipse;whiteSpace=wrap;html=1;" vertex="1" parent="1">
          <mxGeometry x="550" y="490" width="120" height="80" as="geometry" />
        </mxCell>
        <mxCell id="3B2InA5xFkFEmeWdDdn8-20" value="gestion de materiels" style="ellipse;whiteSpace=wrap;html=1;" vertex="1" parent="1">
          <mxGeometry x="560" y="850" width="120" height="80" as="geometry" />
        </mxCell>
        <mxCell id="3B2InA5xFkFEmeWdDdn8-21" value="gestion de categorie" style="ellipse;whiteSpace=wrap;html=1;" vertex="1" parent="1">
          <mxGeometry x="560" y="740" width="120" height="80" as="geometry" />
        </mxCell>
        <mxCell id="3B2InA5xFkFEmeWdDdn8-22" value="&lt;font style=&quot;font-size: 36px;&quot;&gt;Sanaat-bladi&lt;/font&gt;" style="text;strokeColor=none;align=center;fillColor=none;html=1;verticalAlign=middle;whiteSpace=wrap;rounded=0;" vertex="1" parent="1">
          <mxGeometry x="570" y="-290" width="290" height="30" as="geometry" />
        </mxCell>
        <mxCell id="3B2InA5xFkFEmeWdDdn8-23" value="" style="endArrow=classic;html=1;rounded=0;" edge="1" parent="1" source="3B2InA5xFkFEmeWdDdn8-16" target="3B2InA5xFkFEmeWdDdn8-19">
          <mxGeometry width="50" height="50" relative="1" as="geometry">
            <mxPoint x="450" y="610" as="sourcePoint" />
            <mxPoint x="500" y="560" as="targetPoint" />
          </mxGeometry>
        </mxCell>
        <mxCell id="3B2InA5xFkFEmeWdDdn8-24" value="" style="endArrow=classic;html=1;rounded=0;" edge="1" parent="1" source="3B2InA5xFkFEmeWdDdn8-16" target="3B2InA5xFkFEmeWdDdn8-18">
          <mxGeometry width="50" height="50" relative="1" as="geometry">
            <mxPoint x="500" y="694" as="sourcePoint" />
            <mxPoint x="550" y="644" as="targetPoint" />
          </mxGeometry>
        </mxCell>
        <mxCell id="3B2InA5xFkFEmeWdDdn8-25" value="" style="endArrow=classic;html=1;rounded=0;" edge="1" parent="1" source="3B2InA5xFkFEmeWdDdn8-16" target="3B2InA5xFkFEmeWdDdn8-21">
          <mxGeometry width="50" height="50" relative="1" as="geometry">
            <mxPoint x="500" y="735" as="sourcePoint" />
            <mxPoint x="550" y="685" as="targetPoint" />
          </mxGeometry>
        </mxCell>
        <mxCell id="3B2InA5xFkFEmeWdDdn8-26" value="" style="endArrow=classic;html=1;rounded=0;" edge="1" parent="1" source="3B2InA5xFkFEmeWdDdn8-16" target="3B2InA5xFkFEmeWdDdn8-20">
          <mxGeometry width="50" height="50" relative="1" as="geometry">
            <mxPoint x="500" y="770" as="sourcePoint" />
            <mxPoint x="550" y="720" as="targetPoint" />
          </mxGeometry>
        </mxCell>
        <mxCell id="3B2InA5xFkFEmeWdDdn8-27" value="&lt;div&gt;Artisant&lt;/div&gt;&lt;div&gt;&lt;br&gt;&lt;/div&gt;" style="shape=umlActor;verticalLabelPosition=bottom;verticalAlign=top;html=1;outlineConnect=0;" vertex="1" parent="1">
          <mxGeometry x="230" y="200" width="50" height="100" as="geometry" />
        </mxCell>
        <mxCell id="3B2InA5xFkFEmeWdDdn8-28" value="Authentification" style="ellipse;whiteSpace=wrap;html=1;" vertex="1" parent="1">
          <mxGeometry x="410" y="220" width="120" height="80" as="geometry" />
        </mxCell>
        <mxCell id="3B2InA5xFkFEmeWdDdn8-29" value="gestion des produit" style="ellipse;whiteSpace=wrap;html=1;" vertex="1" parent="1">
          <mxGeometry x="590" y="220" width="120" height="80" as="geometry" />
        </mxCell>
        <mxCell id="3B2InA5xFkFEmeWdDdn8-30" value="modifier des produits" style="ellipse;whiteSpace=wrap;html=1;" vertex="1" parent="1">
          <mxGeometry x="750" y="280" width="120" height="80" as="geometry" />
        </mxCell>
        <mxCell id="3B2InA5xFkFEmeWdDdn8-31" value="ajouter des produits" style="ellipse;whiteSpace=wrap;html=1;" vertex="1" parent="1">
          <mxGeometry x="750" y="160" width="120" height="80" as="geometry" />
        </mxCell>
        <mxCell id="3B2InA5xFkFEmeWdDdn8-32" value="supprimer des produit" style="ellipse;whiteSpace=wrap;html=1;" vertex="1" parent="1">
          <mxGeometry x="750" y="410" width="120" height="80" as="geometry" />
        </mxCell>
        <mxCell id="3B2InA5xFkFEmeWdDdn8-33" value="" style="endArrow=classic;html=1;rounded=0;exitX=0.992;exitY=0.434;exitDx=0;exitDy=0;exitPerimeter=0;entryX=0.054;entryY=0.742;entryDx=0;entryDy=0;entryPerimeter=0;" edge="1" parent="1" source="3B2InA5xFkFEmeWdDdn8-29" target="3B2InA5xFkFEmeWdDdn8-31">
          <mxGeometry width="50" height="50" relative="1" as="geometry">
            <mxPoint x="830" y="380" as="sourcePoint" />
            <mxPoint x="880" y="330" as="targetPoint" />
          </mxGeometry>
        </mxCell>
        <mxCell id="3B2InA5xFkFEmeWdDdn8-34" value="" style="endArrow=classic;html=1;rounded=0;exitX=1;exitY=1;exitDx=0;exitDy=0;entryX=0;entryY=0;entryDx=0;entryDy=0;" edge="1" parent="1" source="3B2InA5xFkFEmeWdDdn8-29" target="3B2InA5xFkFEmeWdDdn8-32">
          <mxGeometry width="50" height="50" relative="1" as="geometry">
            <mxPoint x="810" y="440" as="sourcePoint" />
            <mxPoint x="860" y="390" as="targetPoint" />
          </mxGeometry>
        </mxCell>
        <mxCell id="3B2InA5xFkFEmeWdDdn8-35" value="" style="endArrow=classic;html=1;rounded=0;exitX=1;exitY=0.5;exitDx=0;exitDy=0;entryX=0;entryY=0;entryDx=0;entryDy=0;" edge="1" parent="1" source="3B2InA5xFkFEmeWdDdn8-29" target="3B2InA5xFkFEmeWdDdn8-30">
          <mxGeometry width="50" height="50" relative="1" as="geometry">
            <mxPoint x="810" y="440" as="sourcePoint" />
            <mxPoint x="860" y="390" as="targetPoint" />
          </mxGeometry>
        </mxCell>
        <mxCell id="3B2InA5xFkFEmeWdDdn8-36" value="" style="endArrow=none;html=1;rounded=0;exitX=0.5;exitY=0.5;exitDx=0;exitDy=0;exitPerimeter=0;entryX=0;entryY=0.5;entryDx=0;entryDy=0;" edge="1" parent="1" source="3B2InA5xFkFEmeWdDdn8-27" target="3B2InA5xFkFEmeWdDdn8-28">
          <mxGeometry width="50" height="50" relative="1" as="geometry">
            <mxPoint x="1030" y="470" as="sourcePoint" />
            <mxPoint x="1080" y="420" as="targetPoint" />
          </mxGeometry>
        </mxCell>
        <mxCell id="3B2InA5xFkFEmeWdDdn8-37" value="" style="endArrow=none;html=1;rounded=0;exitX=1;exitY=0.5;exitDx=0;exitDy=0;entryX=0;entryY=0.5;entryDx=0;entryDy=0;" edge="1" parent="1" source="3B2InA5xFkFEmeWdDdn8-28" target="3B2InA5xFkFEmeWdDdn8-29">
          <mxGeometry width="50" height="50" relative="1" as="geometry">
            <mxPoint x="1030" y="470" as="sourcePoint" />
            <mxPoint x="1080" y="420" as="targetPoint" />
          </mxGeometry>
        </mxCell>
        <mxCell id="3B2InA5xFkFEmeWdDdn8-40" value="&amp;lt;&amp;lt;include&amp;gt;&amp;gt;" style="html=1;verticalAlign=bottom;labelBackgroundColor=none;endArrow=open;endFill=0;dashed=1;rounded=0;exitX=0.5;exitY=1;exitDx=0;exitDy=0;" edge="1" parent="1" source="3B2InA5xFkFEmeWdDdn8-29" target="3B2InA5xFkFEmeWdDdn8-41">
          <mxGeometry width="160" relative="1" as="geometry">
            <mxPoint x="730" y="470" as="sourcePoint" />
            <mxPoint x="890" y="470" as="targetPoint" />
          </mxGeometry>
        </mxCell>
        <mxCell id="3B2InA5xFkFEmeWdDdn8-41" value="accepter" style="ellipse;whiteSpace=wrap;html=1;" vertex="1" parent="1">
          <mxGeometry x="380" y="390" width="120" height="80" as="geometry" />
        </mxCell>
        <mxCell id="3B2InA5xFkFEmeWdDdn8-42" value="" style="endArrow=none;html=1;rounded=0;exitX=0;exitY=1;exitDx=0;exitDy=0;entryX=0.5;entryY=0;entryDx=0;entryDy=0;entryPerimeter=0;" edge="1" parent="1" source="3B2InA5xFkFEmeWdDdn8-41" target="3B2InA5xFkFEmeWdDdn8-15">
          <mxGeometry width="50" height="50" relative="1" as="geometry">
            <mxPoint x="780" y="490" as="sourcePoint" />
            <mxPoint x="830" y="440" as="targetPoint" />
          </mxGeometry>
        </mxCell>
        <mxCell id="3B2InA5xFkFEmeWdDdn8-43" value="client" style="shape=umlActor;verticalLabelPosition=bottom;verticalAlign=top;html=1;outlineConnect=0;" vertex="1" parent="1">
          <mxGeometry x="230" y="-60" width="50" height="100" as="geometry" />
        </mxCell>
        <mxCell id="3B2InA5xFkFEmeWdDdn8-44" value="Authentification" style="ellipse;whiteSpace=wrap;html=1;" vertex="1" parent="1">
          <mxGeometry x="410" y="-50" width="120" height="80" as="geometry" />
        </mxCell>
        <mxCell id="3B2InA5xFkFEmeWdDdn8-45" value="" style="endArrow=none;html=1;rounded=0;exitX=0.5;exitY=0.5;exitDx=0;exitDy=0;exitPerimeter=0;entryX=0;entryY=0.5;entryDx=0;entryDy=0;" edge="1" parent="1" source="3B2InA5xFkFEmeWdDdn8-43" target="3B2InA5xFkFEmeWdDdn8-44">
          <mxGeometry width="50" height="50" relative="1" as="geometry">
            <mxPoint x="740" y="30" as="sourcePoint" />
            <mxPoint x="790" y="-20" as="targetPoint" />
          </mxGeometry>
        </mxCell>
        <mxCell id="3B2InA5xFkFEmeWdDdn8-46" value="acheter des produits" style="ellipse;whiteSpace=wrap;html=1;" vertex="1" parent="1">
          <mxGeometry x="630" y="-50" width="120" height="80" as="geometry" />
        </mxCell>
        <mxCell id="3B2InA5xFkFEmeWdDdn8-47" value="" style="endArrow=none;html=1;rounded=0;exitX=1;exitY=0.5;exitDx=0;exitDy=0;entryX=0;entryY=0.5;entryDx=0;entryDy=0;" edge="1" parent="1" source="3B2InA5xFkFEmeWdDdn8-44" target="3B2InA5xFkFEmeWdDdn8-46">
          <mxGeometry width="50" height="50" relative="1" as="geometry">
            <mxPoint x="740" y="140" as="sourcePoint" />
            <mxPoint x="790" y="90" as="targetPoint" />
          </mxGeometry>
        </mxCell>
      </root>
    </mxGraphModel>
  </diagram>
</mxfile>
